<?xml version="1.0" encoding="UTF-8" standalone="no"?>
<!DOCTYPE svg PUBLIC "-//W3C//DTD SVG 1.1//EN"
 "http://www.w3.org/Graphics/SVG/1.1/DTD/svg11.dtd">
<!-- Generated by graphviz version 2.26.3 (20100126.1600)
 -->
<!-- Title: Pipeline: Pages: 1 -->
<svg width="902pt" height="886pt"
 viewBox="0.00 0.00 902.34 886.00" xmlns="http://www.w3.org/2000/svg" xmlns:xlink="http://www.w3.org/1999/xlink">
<g id="graph1" class="graph" transform="scale(1 1) rotate(0) translate(4 882)">
<title>Pipeline:</title>
<polygon fill="white" stroke="white" points="-4,5 -4,-882 899.335,-882 899.335,5 -4,5"/>
<g id="graph2" class="cluster"><title>clustertasks</title>
<polygon fill="none" stroke="black" points="16.3355,-8 16.3355,-862 710.335,-862 710.335,-8 16.3355,-8"/>
<text text-anchor="middle" x="363.335" y="-830.892" font-family="Times-Roman" font-size="30.0px" fill="#ff3232">Pipeline:</text>
</g>
<g id="graph3" class="cluster"><title>clusterkey1</title>
<polygon fill="#f6f4f4" stroke="#f6f4f4" points="718.335,-512 718.335,-870 886.335,-870 886.335,-512 718.335,-512"/>
<text text-anchor="middle" x="802.335" y="-838.892" font-family="Times-Roman" font-size="30.0px">Key:</text>
</g>
<!-- t1 -->
<g id="node2" class="node"><title>t1</title>
<polygon fill="#b8cc6e" stroke="#006000" points="691.335,-810 597.335,-810 593.335,-806 593.335,-774 687.335,-774 691.335,-778 691.335,-810"/>
<polyline fill="none" stroke="#006000" points="687.335,-806 593.335,-806 "/>
<polyline fill="none" stroke="#006000" points="687.335,-806 687.335,-774 "/>
<polyline fill="none" stroke="#006000" points="687.335,-806 691.335,-810 "/>
<text text-anchor="middle" x="642.335" y="-785.892" font-family="Times-Roman" font-size="20.0px" fill="#006000">trimReads</text>
</g>
<!-- t5 -->
<g id="node4" class="node"><title>t5</title>
<polygon fill="#b8cc6e" stroke="#006000" points="509.335,-736 401.335,-736 397.335,-732 397.335,-700 505.335,-700 509.335,-704 509.335,-736"/>
<polyline fill="none" stroke="#006000" points="505.335,-732 397.335,-732 "/>
<polyline fill="none" stroke="#006000" points="505.335,-732 505.335,-700 "/>
<polyline fill="none" stroke="#006000" points="505.335,-732 509.335,-736 "/>
<text text-anchor="middle" x="453.335" y="-711.892" font-family="Times-Roman" font-size="20.0px" fill="#006000">tophatAlign</text>
</g>
<!-- t1&#45;&gt;t5 -->
<g id="edge51" class="edge"><title>t1&#45;&gt;t5</title>
<path fill="none" stroke="gray" d="M596.101,-773.898C569.804,-763.601 536.691,-750.637 508.977,-739.786"/>
<polygon fill="gray" stroke="gray" points="510.008,-736.43 499.42,-736.044 507.456,-742.949 510.008,-736.43"/>
</g>
<!-- t2 -->
<g id="node20" class="node"><title>t2</title>
<polygon fill="#b8cc6e" stroke="#006000" points="695.335,-162 553.335,-162 549.335,-158 549.335,-126 691.335,-126 695.335,-130 695.335,-162"/>
<polyline fill="none" stroke="#006000" points="691.335,-158 549.335,-158 "/>
<polyline fill="none" stroke="#006000" points="691.335,-158 691.335,-126 "/>
<polyline fill="none" stroke="#006000" points="691.335,-158 695.335,-162 "/>
<text text-anchor="middle" x="622.335" y="-137.892" font-family="Times-Roman" font-size="20.0px" fill="#006000">fastQCPostTrim</text>
</g>
<!-- t1&#45;&gt;t2 -->
<g id="edge19" class="edge"><title>t1&#45;&gt;t2</title>
<path fill="none" stroke="gray" d="M653.992,-773.606C671.186,-744.659 701.335,-686.179 701.335,-632 701.335,-632 701.335,-632 701.335,-260 701.335,-223.88 674.845,-190.694 652.544,-169.157"/>
<polygon fill="gray" stroke="gray" points="654.891,-166.561 645.186,-162.312 650.0px3,-171.686 654.891,-166.561"/>
</g>
<!-- t4 -->
<g id="node3" class="node"><title>t4</title>
<polygon fill="#b8cc6e" stroke="#006000" points="563.335,-810 347.335,-810 343.335,-806 343.335,-774 559.335,-774 563.335,-778 563.335,-810"/>
<polyline fill="none" stroke="#006000" points="559.335,-806 343.335,-806 "/>
<polyline fill="none" stroke="#006000" points="559.335,-806 559.335,-774 "/>
<polyline fill="none" stroke="#006000" points="559.335,-806 563.335,-810 "/>
<text text-anchor="middle" x="453.335" y="-785.892" font-family="Times-Roman" font-size="20.0px" fill="#006000">buildTranscriptomeIndex</text>
</g>
<!-- t4&#45;&gt;t5 -->
<g id="edge3" class="edge"><title>t4&#45;&gt;t5</title>
<path fill="none" stroke="gray" d="M453.335,-773.708C453.335,-765.464 453.335,-755.538 453.335,-746.362"/>
<polygon fill="gray" stroke="gray" points="456.836,-746.082 453.335,-736.082 449.836,-746.082 456.836,-746.082"/>
</g>
<!-- t8 -->
<g id="node6" class="node"><title>t8</title>
<polygon fill="#b8cc6e" stroke="#006000" points="616.335,-650 500.335,-650 496.335,-646 496.335,-614 612.335,-614 616.335,-618 616.335,-650"/>
<polyline fill="none" stroke="#006000" points="612.335,-646 496.335,-646 "/>
<polyline fill="none" stroke="#006000" points="612.335,-646 612.335,-614 "/>
<polyline fill="none" stroke="#006000" points="612.335,-646 616.335,-650 "/>
<text text-anchor="middle" x="556.335" y="-625.892" font-family="Times-Roman" font-size="20.0px" fill="#006000">mergeTophat</text>
</g>
<!-- t5&#45;&gt;t8 -->
<g id="edge5" class="edge"><title>t5&#45;&gt;t8</title>
<path fill="none" stroke="gray" d="M475.179,-699.762C490.201,-687.219 510.328,-670.414 526.78,-656.677"/>
<polygon fill="gray" stroke="gray" points="529.09,-659.308 534.523,-650.212 524.604,-653.935 529.09,-659.308"/>
</g>
<!-- t19 -->
<g id="node23" class="node"><title>t19</title>
<polygon fill="#b8cc6e" stroke="#006000" points="216.335,-650 64.3355,-650 60.3355,-646 60.3355,-614 212.335,-614 216.335,-618 216.335,-650"/>
<polyline fill="none" stroke="#006000" points="212.335,-646 60.3355,-646 "/>
<polyline fill="none" stroke="#006000" points="212.335,-646 212.335,-614 "/>
<polyline fill="none" stroke="#006000" points="212.335,-646 216.335,-650 "/>
<text text-anchor="middle" x="138.335" y="-625.892" font-family="Times-Roman" font-size="20.0px" fill="#006000">sortBamByName</text>
</g>
<!-- t5&#45;&gt;t19 -->
<g id="edge21" class="edge"><title>t5&#45;&gt;t19</title>
<path fill="none" stroke="gray" d="M397.02,-702.625C346.103,-688.724 270.72,-668.143 214.449,-652.78"/>
<polygon fill="gray" stroke="gray" points="215.098,-649.329 204.529,-650.072 213.254,-656.082 215.098,-649.329"/>
</g>
<!-- t6 -->
<g id="node29" class="node"><title>t6</title>
<polygon fill="#ebf3ff" stroke="#0044a0" points="475.335,-650 395.335,-650 391.335,-646 391.335,-614 471.335,-614 475.335,-618 475.335,-650"/>
<polyline fill="none" stroke="#0044a0" points="471.335,-646 391.335,-646 "/>
<polyline fill="none" stroke="#0044a0" points="471.335,-646 471.335,-614 "/>
<polyline fill="none" stroke="#0044a0" points="471.335,-646 475.335,-650 "/>
<text text-anchor="middle" x="433.335" y="-625.892" font-family="Times-Roman" font-size="20.0px" fill="#0044a0">sortBam</text>
</g>
<!-- t5&#45;&gt;t6 -->
<g id="edge27" class="edge"><title>t5&#45;&gt;t6</title>
<path fill="none" stroke="gray" d="M449.094,-699.762C446.416,-688.246 442.902,-673.135 439.872,-660.106"/>
<polygon fill="gray" stroke="gray" points="443.245,-659.159 437.571,-650.212 436.427,-660.745 443.245,-659.159"/>
</g>
<!-- t9 -->
<g id="node8" class="node"><title>t9</title>
<polygon fill="#b8cc6e" stroke="#006000" points="617.335,-564 509.335,-564 505.335,-560 505.335,-528 613.335,-528 617.335,-532 617.335,-564"/>
<polyline fill="none" stroke="#006000" points="613.335,-560 505.335,-560 "/>
<polyline fill="none" stroke="#006000" points="613.335,-560 613.335,-528 "/>
<polyline fill="none" stroke="#006000" points="613.335,-560 617.335,-564 "/>
<text text-anchor="middle" x="561.335" y="-539.892" font-family="Times-Roman" font-size="20.0px" fill="#006000">reorderBam</text>
</g>
<!-- t8&#45;&gt;t9 -->
<g id="edge7" class="edge"><title>t8&#45;&gt;t9</title>
<path fill="none" stroke="gray" d="M557.396,-613.762C558.059,-602.36 558.927,-587.434 559.679,-574.494"/>
<polygon fill="gray" stroke="gray" points="563.19,-574.398 560.277,-564.212 556.202,-573.992 563.19,-574.398"/>
</g>
<!-- t10 -->
<g id="node10" class="node"><title>t10</title>
<polygon fill="#b8cc6e" stroke="#006000" points="607.335,-472 539.335,-472 535.335,-468 535.335,-436 603.335,-436 607.335,-440 607.335,-472"/>
<polyline fill="none" stroke="#006000" points="603.335,-468 535.335,-468 "/>
<polyline fill="none" stroke="#006000" points="603.335,-468 603.335,-436 "/>
<polyline fill="none" stroke="#006000" points="603.335,-468 607.335,-472 "/>
<text text-anchor="middle" x="571.335" y="-447.892" font-family="Times-Roman" font-size="20.0px" fill="#006000">addRG</text>
</g>
<!-- t9&#45;&gt;t10 -->
<g id="edge9" class="edge"><title>t9&#45;&gt;t10</title>
<path fill="none" stroke="gray" d="M563.311,-527.824C564.722,-514.845 566.647,-497.133 568.258,-482.311"/>
<polygon fill="gray" stroke="gray" points="571.763,-482.458 569.364,-472.138 564.804,-481.702 571.763,-482.458"/>
</g>
<!-- t11 -->
<g id="node12" class="node"><title>t11</title>
<polygon fill="#b8cc6e" stroke="#006000" points="662.335,-362 484.335,-362 480.335,-358 480.335,-326 658.335,-326 662.335,-330 662.335,-362"/>
<polyline fill="none" stroke="#006000" points="658.335,-358 480.335,-358 "/>
<polyline fill="none" stroke="#006000" points="658.335,-358 658.335,-326 "/>
<polyline fill="none" stroke="#006000" points="658.335,-358 662.335,-362 "/>
<text text-anchor="middle" x="571.335" y="-337.892" font-family="Times-Roman" font-size="20.0px" fill="#006000">indexReorderedBam</text>
</g>
<!-- t10&#45;&gt;t11 -->
<g id="edge11" class="edge"><title>t10&#45;&gt;t11</title>
<path fill="none" stroke="gray" d="M571.335,-435.836C571.335,-418.559 571.335,-392.309 571.335,-372.292"/>
<polygon fill="gray" stroke="gray" points="574.836,-372.191 571.335,-362.191 567.836,-372.191 574.836,-372.191"/>
</g>
<!-- t12 -->
<g id="node14" class="node"><title>t12</title>
<polygon fill="#b8cc6e" stroke="#006000" points="643.335,-278 503.335,-278 499.335,-274 499.335,-242 639.335,-242 643.335,-246 643.335,-278"/>
<polyline fill="none" stroke="#006000" points="639.335,-274 499.335,-274 "/>
<polyline fill="none" stroke="#006000" points="639.335,-274 639.335,-242 "/>
<polyline fill="none" stroke="#006000" points="639.335,-274 643.335,-278 "/>
<text text-anchor="middle" x="571.335" y="-253.892" font-family="Times-Roman" font-size="20.0px" fill="#006000">markDuplicates</text>
</g>
<!-- t10&#45;&gt;t12 -->
<g id="edge53" class="edge"><title>t10&#45;&gt;t12</title>
<path fill="none" stroke="gray" d="M607.817,-440.511C630.544,-429.982 657.929,-412.912 671.335,-388 689.87,-353.56 693.262,-332.387 671.335,-300 666.363,-292.655 659.799,-286.659 652.405,-281.763"/>
<polygon fill="gray" stroke="gray" points="653.791,-278.52 643.389,-276.507 650.266,-284.567 653.791,-278.52"/>
</g>
<!-- t11&#45;&gt;t12 -->
<g id="edge13" class="edge"><title>t11&#45;&gt;t12</title>
<path fill="none" stroke="gray" d="M571.335,-325.773C571.335,-314.876 571.335,-300.795 571.335,-288.459"/>
<polygon fill="gray" stroke="gray" points="574.836,-288.191 571.335,-278.191 567.836,-288.191 574.836,-288.191"/>
</g>
<!-- t13 -->
<g id="node16" class="node"><title>t13</title>
<polygon fill="#b8cc6e" stroke="#006000" points="552.335,-220 384.335,-220 380.335,-216 380.335,-184 548.335,-184 552.335,-188 552.335,-220"/>
<polyline fill="none" stroke="#006000" points="548.335,-216 380.335,-216 "/>
<polyline fill="none" stroke="#006000" points="548.335,-216 548.335,-184 "/>
<polyline fill="none" stroke="#006000" points="548.335,-216 552.335,-220 "/>
<text text-anchor="middle" x="466.335" y="-195.892" font-family="Times-Roman" font-size="20.0px" fill="#006000">indexMarkdupBam</text>
</g>
<!-- t12&#45;&gt;t13 -->
<g id="edge15" class="edge"><title>t12&#45;&gt;t13</title>
<path fill="none" stroke="gray" d="M538.688,-241.966C528.91,-236.565 518.055,-230.569 507.79,-224.898"/>
<polygon fill="gray" stroke="gray" points="509.408,-221.794 498.962,-220.022 506.023,-227.921 509.408,-221.794"/>
</g>
<!-- t14 -->
<g id="node18" class="node"><title>t14</title>
<polygon fill="#b8cc6e" stroke="#006000" points="441.335,-162 355.335,-162 351.335,-158 351.335,-126 437.335,-126 441.335,-130 441.335,-162"/>
<polyline fill="none" stroke="#006000" points="437.335,-158 351.335,-158 "/>
<polyline fill="none" stroke="#006000" points="437.335,-158 437.335,-126 "/>
<polyline fill="none" stroke="#006000" points="437.335,-158 441.335,-162 "/>
<text text-anchor="middle" x="396.335" y="-137.892" font-family="Times-Roman" font-size="20.0px" fill="#006000">rnaSeQC</text>
</g>
<!-- t12&#45;&gt;t14 -->
<g id="edge55" class="edge"><title>t12&#45;&gt;t14</title>
<path fill="none" stroke="gray" d="M574.382,-241.86C576.153,-224.696 575.714,-199.342 561.335,-184 528.959,-149.454 502.257,-171.857 451.373,-161.816"/>
<polygon fill="gray" stroke="gray" points="452.116,-158.396 441.584,-159.543 450.533,-165.215 452.116,-158.396"/>
</g>
<!-- t13&#45;&gt;t14 -->
<g id="edge17" class="edge"><title>t13&#45;&gt;t14</title>
<path fill="none" stroke="gray" d="M444.571,-183.966C438.832,-179.211 432.536,-173.994 426.442,-168.945"/>
<polygon fill="gray" stroke="gray" points="428.261,-165.907 418.328,-162.222 423.795,-171.298 428.261,-165.907"/>
</g>
<!-- t21 -->
<g id="node27" class="node"><title>t21</title>
<polygon fill="#efa03b" stroke="#006000" points="312.275,-47.7938 389.335,-20.5 466.396,-47.7938 466.324,-91.9562 312.347,-91.9562 312.275,-47.7938"/>
<polygon fill="none" stroke="#006000" points="308.27,-44.9687 389.335,-16.2565 470.401,-44.9687 470.318,-95.9562 308.353,-95.9562 308.27,-44.9687"/>
<text text-anchor="middle" x="389.335" y="-53.892" font-family="Times-Roman" font-size="20.0px" fill="#006000">qcSummary</text>
</g>
<!-- t14&#45;&gt;t21 -->
<g id="edge57" class="edge"><title>t14&#45;&gt;t21</title>
<path fill="none" stroke="gray" d="M394.817,-125.773C394.33,-119.938 393.768,-113.189 393.193,-106.285"/>
<polygon fill="gray" stroke="gray" points="396.666,-105.82 392.348,-96.1454 389.69,-106.402 396.666,-105.82"/>
</g>
<!-- t2&#45;&gt;t21 -->
<g id="edge59" class="edge"><title>t2&#45;&gt;t21</title>
<path fill="none" stroke="gray" d="M549.124,-126.274C526.472,-120.059 501.621,-112.484 479.335,-104 476.067,-102.756 472.756,-101.435 469.431,-100.059"/>
<polygon fill="gray" stroke="gray" points="470.612,-96.7573 460.041,-96.0459 467.861,-103.194 470.612,-96.7573"/>
</g>
<!-- t3 -->
<g id="node50" class="node"><title>t3</title>
<polygon fill="#efa03b" stroke="#006000" points="492.588,-47.7938 595.335,-20.5 698.083,-47.7938 697.987,-91.9562 492.684,-91.9562 492.588,-47.7938"/>
<polygon fill="none" stroke="#006000" points="488.581,-44.7194 595.335,-16.3613 702.09,-44.7194 701.979,-95.9562 488.692,-95.9562 488.581,-44.7194"/>
<text text-anchor="middle" x="595.335" y="-53.892" font-family="Times-Roman" font-size="20.0px" fill="#006000">fastQCSummary</text>
</g>
<!-- t2&#45;&gt;t3 -->
<g id="edge49" class="edge"><title>t2&#45;&gt;t3</title>
<path fill="none" stroke="gray" d="M616.477,-125.773C614.558,-119.802 612.331,-112.875 610.058,-105.803"/>
<polygon fill="gray" stroke="gray" points="613.346,-104.595 606.954,-96.1454 606.682,-106.737 613.346,-104.595"/>
</g>
<!-- t0 -->
<g id="node22" class="node"><title>t0</title>
<polygon fill="#b8cc6e" stroke="#006000" points="531.335,-162 463.335,-162 459.335,-158 459.335,-126 527.335,-126 531.335,-130 531.335,-162"/>
<polyline fill="none" stroke="#006000" points="527.335,-158 459.335,-158 "/>
<polyline fill="none" stroke="#006000" points="527.335,-158 527.335,-126 "/>
<polyline fill="none" stroke="#006000" points="527.335,-158 531.335,-162 "/>
<text text-anchor="middle" x="495.335" y="-137.892" font-family="Times-Roman" font-size="20.0px" fill="#006000">fastQC</text>
</g>
<!-- t0&#45;&gt;t21 -->
<g id="edge61" class="edge"><title>t0&#45;&gt;t21</title>
<path fill="none" stroke="gray" d="M472.596,-125.98C463.773,-118.988 453.268,-110.664 442.742,-102.322"/>
<polygon fill="gray" stroke="gray" points="444.727,-99.4292 434.715,-95.9615 440.379,-104.915 444.727,-99.4292"/>
</g>
<!-- t0&#45;&gt;t3 -->
<g id="edge63" class="edge"><title>t0&#45;&gt;t3</title>
<path fill="none" stroke="gray" d="M517.034,-125.773C525.193,-118.92 534.85,-110.807 544.548,-102.662"/>
<polygon fill="gray" stroke="gray" points="546.899,-105.257 552.305,-96.1454 542.397,-99.8973 546.899,-105.257"/>
</g>
<!-- t20 -->
<g id="node25" class="node"><title>t20</title>
<polygon fill="#b8cc6e" stroke="#006000" points="214.335,-278 82.3355,-278 78.3355,-274 78.3355,-242 210.335,-242 214.335,-246 214.335,-278"/>
<polyline fill="none" stroke="#006000" points="210.335,-274 78.3355,-274 "/>
<polyline fill="none" stroke="#006000" points="210.335,-274 210.335,-242 "/>
<polyline fill="none" stroke="#006000" points="210.335,-274 214.335,-278 "/>
<text text-anchor="middle" x="146.335" y="-253.892" font-family="Times-Roman" font-size="20.0px" fill="#006000">alignmentStats</text>
</g>
<!-- t19&#45;&gt;t20 -->
<g id="edge23" class="edge"><title>t19&#45;&gt;t20</title>
<path fill="none" stroke="gray" d="M112.829,-613.815C99.5195,-603.072 84.0334,-588.383 74.3355,-572 12.125,-466.908 -34.8722,-399.927 35.3355,-300 40.1139,-293.199 53.0181,-286.69 68.4158,-280.971"/>
<polygon fill="gray" stroke="gray" points="69.9946,-284.127 78.2749,-277.517 67.6801,-277.521 69.9946,-284.127"/>
</g>
<!-- t22 -->
<g id="node42" class="node"><title>t22</title>
<polygon fill="#b8cc6e" stroke="#006000" points="193.335,-564 87.3355,-564 83.3355,-560 83.3355,-528 189.335,-528 193.335,-532 193.335,-564"/>
<polyline fill="none" stroke="#006000" points="189.335,-560 83.3355,-560 "/>
<polyline fill="none" stroke="#006000" points="189.335,-560 189.335,-528 "/>
<polyline fill="none" stroke="#006000" points="189.335,-560 193.335,-564 "/>
<text text-anchor="middle" x="138.335" y="-539.892" font-family="Times-Roman" font-size="20.0px" fill="#006000">countReads</text>
</g>
<!-- t19&#45;&gt;t22 -->
<g id="edge41" class="edge"><title>t19&#45;&gt;t22</title>
<path fill="none" stroke="gray" d="M138.335,-613.762C138.335,-602.36 138.335,-587.434 138.335,-574.494"/>
<polygon fill="gray" stroke="gray" points="141.836,-574.212 138.335,-564.212 134.836,-574.212 141.836,-574.212"/>
</g>
<!-- t20&#45;&gt;t21 -->
<g id="edge25" class="edge"><title>t20&#45;&gt;t21</title>
<path fill="none" stroke="gray" d="M168.329,-241.899C206.333,-210.619 285.26,-145.659 337.767,-102.443"/>
<polygon fill="gray" stroke="gray" points="340.138,-105.024 345.635,-95.9671 335.69,-99.6196 340.138,-105.024"/>
</g>
<!-- t7 -->
<g id="node31" class="node"><title>t7</title>
<polygon fill="#ebf3ff" stroke="#0044a0" points="414.335,-564 266.335,-564 262.335,-560 262.335,-528 410.335,-528 414.335,-532 414.335,-564"/>
<polyline fill="none" stroke="#0044a0" points="410.335,-560 262.335,-560 "/>
<polyline fill="none" stroke="#0044a0" points="410.335,-560 410.335,-528 "/>
<polyline fill="none" stroke="#0044a0" points="410.335,-560 414.335,-564 "/>
<text text-anchor="middle" x="338.335" y="-539.892" font-family="Times-Roman" font-size="20.0px" fill="#0044a0">indexSortedBam</text>
</g>
<!-- t6&#45;&gt;t7 -->
<g id="edge29" class="edge"><title>t6&#45;&gt;t7</title>
<path fill="none" stroke="#0044a0" d="M413.188,-613.762C399.46,-601.333 381.107,-584.719 366.01,-571.052"/>
<polygon fill="#0044a0" stroke="#0044a0" points="368.216,-568.329 358.453,-564.212 363.518,-573.518 368.216,-568.329"/>
</g>
<!-- t15 -->
<g id="node33" class="node"><title>t15</title>
<polygon fill="#ebf3ff" stroke="#0044a0" points="423.335,-472 257.335,-472 253.335,-468 253.335,-436 419.335,-436 423.335,-440 423.335,-472"/>
<polyline fill="none" stroke="#0044a0" points="419.335,-468 253.335,-468 "/>
<polyline fill="none" stroke="#0044a0" points="419.335,-468 419.335,-436 "/>
<polyline fill="none" stroke="#0044a0" points="419.335,-468 423.335,-472 "/>
<text text-anchor="middle" x="338.335" y="-447.892" font-family="Times-Roman" font-size="20.0px" fill="#0044a0">cufflinksAssembly</text>
</g>
<!-- t6&#45;&gt;t15 -->
<g id="edge33" class="edge"><title>t6&#45;&gt;t15</title>
<path fill="none" stroke="#0044a0" d="M436.388,-613.904C439.613,-589.098 441.964,-543.972 423.335,-512 415.146,-497.945 402.029,-486.55 388.526,-477.702"/>
<polygon fill="#0044a0" stroke="#0044a0" points="389.998,-474.499 379.644,-472.253 386.337,-480.466 389.998,-474.499"/>
</g>
<!-- t7&#45;&gt;t15 -->
<g id="edge31" class="edge"><title>t7&#45;&gt;t15</title>
<path fill="none" stroke="#0044a0" d="M338.335,-527.824C338.335,-514.845 338.335,-497.133 338.335,-482.311"/>
<polygon fill="#0044a0" stroke="#0044a0" points="341.836,-482.138 338.335,-472.138 334.836,-482.139 341.836,-482.138"/>
</g>
<!-- t16 -->
<g id="node36" class="node"><title>t16</title>
<polygon fill="#ebf3ff" stroke="#0044a0" points="212.308,-331.794 335.335,-304.5 458.362,-331.794 458.248,-375.956 212.423,-375.956 212.308,-331.794"/>
<polygon fill="none" stroke="#0044a0" points="208.3,-328.586 335.335,-300.403 462.371,-328.586 462.237,-379.956 208.434,-379.956 208.3,-328.586"/>
<text text-anchor="middle" x="335.335" y="-337.892" font-family="Times-Roman" font-size="20.0px" fill="#0044a0">createCuffmergeFile</text>
</g>
<!-- t15&#45;&gt;t16 -->
<g id="edge35" class="edge"><title>t15&#45;&gt;t16</title>
<path fill="none" stroke="#0044a0" d="M337.84,-435.836C337.502,-423.422 337.037,-406.374 336.599,-390.335"/>
<polygon fill="#0044a0" stroke="#0044a0" points="340.089,-389.9 336.317,-379.999 333.091,-390.091 340.089,-389.9"/>
</g>
<!-- t17 -->
<g id="node38" class="node"><title>t17</title>
<polygon fill="#ebf3ff" stroke="#0044a0" points="378.335,-278 284.335,-278 280.335,-274 280.335,-242 374.335,-242 378.335,-246 378.335,-278"/>
<polyline fill="none" stroke="#0044a0" points="374.335,-274 280.335,-274 "/>
<polyline fill="none" stroke="#0044a0" points="374.335,-274 374.335,-242 "/>
<polyline fill="none" stroke="#0044a0" points="374.335,-274 378.335,-278 "/>
<text text-anchor="middle" x="329.335" y="-253.892" font-family="Times-Roman" font-size="20.0px" fill="#0044a0">cuffmerge</text>
</g>
<!-- t16&#45;&gt;t17 -->
<g id="edge37" class="edge"><title>t16&#45;&gt;t17</title>
<path fill="none" stroke="#0044a0" d="M332.265,-301.016C331.959,-296.727 331.653,-292.452 331.362,-288.369"/>
<polygon fill="#0044a0" stroke="#0044a0" points="334.835,-287.861 330.631,-278.136 327.852,-288.36 334.835,-287.861"/>
</g>
<!-- t18 -->
<g id="node40" class="node"><title>t18</title>
<polygon fill="#efa03b" stroke="black" points="362.335,-220 288.335,-220 284.335,-216 284.335,-184 358.335,-184 362.335,-188 362.335,-220"/>
<polyline fill="none" stroke="black" points="358.335,-216 284.335,-216 "/>
<polyline fill="none" stroke="black" points="358.335,-216 358.335,-184 "/>
<polyline fill="none" stroke="black" points="358.335,-216 362.335,-220 "/>
<text text-anchor="middle" x="323.335" y="-195.892" font-family="Times-Roman" font-size="20.0px">cuffdiff</text>
</g>
<!-- t17&#45;&gt;t18 -->
<g id="edge39" class="edge"><title>t17&#45;&gt;t18</title>
<path fill="none" stroke="#0044a0" d="M327.47,-241.966C327.09,-238.292 326.681,-234.342 326.274,-230.406"/>
<polygon fill="#0044a0" stroke="#0044a0" points="329.731,-229.809 325.221,-220.222 322.768,-230.529 329.731,-229.809"/>
</g>
<!-- t23 -->
<g id="node44" class="node"><title>t23</title>
<polygon fill="#b8cc6e" stroke="#006000" points="68.5062,-441.794 138.335,-414.5 208.165,-441.794 208.1,-485.956 68.5713,-485.956 68.5062,-441.794"/>
<polygon fill="none" stroke="#006000" points="64.529,-439.057 138.335,-410.209 212.142,-439.057 212.067,-489.956 64.6041,-489.956 64.529,-439.057"/>
<text text-anchor="middle" x="138.335" y="-450.892" font-family="Times-Roman" font-size="14.0px" fill="#006000">combineAndAnnotate</text>
</g>
<!-- t22&#45;&gt;t23 -->
<g id="edge43" class="edge"><title>t22&#45;&gt;t23</title>
<path fill="none" stroke="gray" d="M138.335,-527.824C138.335,-519.817 138.335,-510.01 138.335,-500.191"/>
<polygon fill="gray" stroke="gray" points="141.836,-500.029 138.335,-490.029 134.836,-500.029 141.836,-500.029"/>
</g>
<!-- t24 -->
<g id="node46" class="node"><title>t24</title>
<polygon fill="#efa03b" stroke="#006000" points="106.335,-362 48.3355,-362 44.3355,-358 44.3355,-326 102.335,-326 106.335,-330 106.335,-362"/>
<polyline fill="none" stroke="#006000" points="102.335,-358 44.3355,-358 "/>
<polyline fill="none" stroke="#006000" points="102.335,-358 102.335,-326 "/>
<polyline fill="none" stroke="#006000" points="102.335,-358 106.335,-362 "/>
<text text-anchor="middle" x="75.3355" y="-337.892" font-family="Times-Roman" font-size="20.0px" fill="#006000">voom</text>
</g>
<!-- t23&#45;&gt;t24 -->
<g id="edge45" class="edge"><title>t23&#45;&gt;t24</title>
<path fill="none" stroke="gray" d="M117.707,-417.982C108.935,-402.665 98.88,-385.11 90.7674,-370.945"/>
<polygon fill="gray" stroke="gray" points="93.7568,-369.122 85.7497,-362.184 87.6825,-372.601 93.7568,-369.122"/>
</g>
<!-- t25 -->
<g id="node48" class="node"><title>t25</title>
<polygon fill="#efa03b" stroke="#006000" points="190.335,-362 128.335,-362 124.335,-358 124.335,-326 186.335,-326 190.335,-330 190.335,-362"/>
<polyline fill="none" stroke="#006000" points="186.335,-358 124.335,-358 "/>
<polyline fill="none" stroke="#006000" points="186.335,-358 186.335,-326 "/>
<polyline fill="none" stroke="#006000" points="186.335,-358 190.335,-362 "/>
<text text-anchor="middle" x="157.335" y="-337.892" font-family="Times-Roman" font-size="20.0px" fill="#006000">edgeR</text>
</g>
<!-- t23&#45;&gt;t25 -->
<g id="edge47" class="edge"><title>t23&#45;&gt;t25</title>
<path fill="none" stroke="gray" d="M145.464,-412.727C147.794,-399.242 150.326,-384.581 152.451,-372.277"/>
<polygon fill="gray" stroke="gray" points="155.946,-372.609 154.199,-362.159 149.048,-371.418 155.946,-372.609"/>
</g>
<!-- k1_1 -->
<g id="node60" class="node"><title>k1_1</title>
<polygon fill="#b8cc6e" stroke="#006000" points="878.335,-818 730.335,-818 726.335,-814 726.335,-766 874.335,-766 878.335,-770 878.335,-818"/>
<polyline fill="none" stroke="#006000" points="874.335,-814 726.335,-814 "/>
<polyline fill="none" stroke="#006000" points="874.335,-814 874.335,-766 "/>
<polyline fill="none" stroke="#006000" points="874.335,-814 878.335,-818 "/>
<text text-anchor="middle" x="802.335" y="-785.892" font-family="Times-Roman" font-size="20.0px" fill="#006000">Up&#45;to&#45;date task</text>
</g>
<!-- k2_1 -->
<g id="node61" class="node"><title>k2_1</title>
<polygon fill="#ebf3ff" stroke="#0044a0" points="861.335,-744 747.335,-744 743.335,-740 743.335,-692 857.335,-692 861.335,-696 861.335,-744"/>
<polyline fill="none" stroke="#0044a0" points="857.335,-740 743.335,-740 "/>
<polyline fill="none" stroke="#0044a0" points="857.335,-740 857.335,-692 "/>
<polyline fill="none" stroke="#0044a0" points="857.335,-740 861.335,-744 "/>
<text text-anchor="middle" x="802.335" y="-711.892" font-family="Times-Roman" font-size="20.0px" fill="#0044a0">Task to run</text>
</g>
<!-- k1_1&#45;&gt;k2_1 -->
<g id="edge66" class="edge"><title>k1_1&#45;&gt;k2_1</title>
<path fill="none" stroke="gray" d="M802.335,-765.702C802.335,-761.994 802.335,-758.13 802.335,-754.276"/>
<polygon fill="gray" stroke="gray" points="805.836,-754.213 802.335,-744.213 798.836,-754.213 805.836,-754.213"/>
</g>
<!-- k3_1 -->
<g id="node63" class="node"><title>k3_1</title>
<polygon fill="#efa03b" stroke="#006000" points="862.335,-670 746.335,-670 742.335,-666 742.335,-594 858.335,-594 862.335,-598 862.335,-670"/>
<polyline fill="none" stroke="#006000" points="858.335,-666 742.335,-666 "/>
<polyline fill="none" stroke="#006000" points="858.335,-666 858.335,-594 "/>
<polyline fill="none" stroke="#006000" points="858.335,-666 862.335,-670 "/>
<text text-anchor="middle" x="802.335" y="-637.892" font-family="Times-Roman" font-size="20.0px" fill="#006000">Up&#45;to&#45;date</text>
<text text-anchor="middle" x="802.335" y="-613.892" font-family="Times-Roman" font-size="20.0px" fill="#006000">Final target</text>
</g>
<!-- k2_1&#45;&gt;k3_1 -->
<g id="edge68" class="edge"><title>k2_1&#45;&gt;k3_1</title>
<path fill="none" stroke="#0044a0" d="M802.335,-691.73C802.335,-688.108 802.335,-684.3 802.335,-680.431"/>
<polygon fill="#0044a0" stroke="#0044a0" points="805.836,-680.139 802.335,-670.139 798.836,-680.14 805.836,-680.139"/>
</g>
<!-- k4_1 -->
<g id="node65" class="node"><title>k4_1</title>
<polygon fill="#efa03b" stroke="black" points="862.335,-572 746.335,-572 742.335,-568 742.335,-520 858.335,-520 862.335,-524 862.335,-572"/>
<polyline fill="none" stroke="black" points="858.335,-568 742.335,-568 "/>
<polyline fill="none" stroke="black" points="858.335,-568 858.335,-520 "/>
<polyline fill="none" stroke="black" points="858.335,-568 862.335,-572 "/>
<text text-anchor="middle" x="802.335" y="-539.892" font-family="Times-Roman" font-size="20.0px">Final target</text>
</g>
<!-- k3_1&#45;&gt;k4_1 -->
<g id="edge70" class="edge"><title>k3_1&#45;&gt;k4_1</title>
<path fill="none" stroke="gray" d="M802.335,-593.778C802.335,-589.87 802.335,-585.908 802.335,-582.024"/>
<polygon fill="gray" stroke="gray" points="805.836,-582.016 802.335,-572.016 798.836,-582.016 805.836,-582.016"/>
</g>
</g>
</svg>
